# xmcd CD database file
#
# Track frame offsets:
#	182
#	46942
#	98797
#	134877
#	180585
#	228085
#
# Disc length: 3653 seconds
#
# Revision: 2
# Processed by: cddbd v1.5.2PL0 Copyright (c) Steve Scherf et al.
# Submitted via: CDex 1.70beta2
#
DISCID=490e4306
DTITLE=Various Artist - Mystical Music Experience Collection: Cosmic Suite
DYEAR=1994
DGENRE=New Age
TTITLE0=Concentric Circles
TTITLE1=Divine Aura
TTITLE2=Sunrise
TTITLE3=Turning Circles
TTITLE4=Hidden Energies
TTITLE5=Halo
EXTD=YEAR: 1994
EXTT0=
EXTT1=
EXTT2=
EXTT3=
EXTT4=
EXTT5=
PLAYORDER=
